G75*
%MOIN*%
%OFA0B0*%
%FSLAX24Y24*%
%IPPOS*%
%LPD*%
%AMOC8*
5,1,8,0,0,1.08239X$1,22.5*
%
%ADD10R,0.0390X0.0120*%
%ADD11R,0.0177X0.0266*%
%ADD12R,0.0690X0.0440*%
%ADD13R,0.0220X0.0520*%
%ADD14R,0.0551X0.0394*%
%ADD15R,0.1040X0.0440*%
%ADD16R,0.0520X0.0220*%
%ADD17R,0.0394X0.0551*%
%ADD18R,0.0440X0.1040*%
%ADD19R,0.0440X0.0690*%
%ADD20R,0.0570X0.0360*%
%ADD21R,0.0709X0.0630*%
D10*
X012751Y018063D03*
X012751Y018319D03*
X012751Y018575D03*
X012751Y018831D03*
X012751Y019087D03*
X012751Y019343D03*
X012751Y019599D03*
X012751Y019855D03*
X012751Y020111D03*
X012751Y020366D03*
X012751Y020622D03*
X012751Y020878D03*
X012751Y021134D03*
X012751Y021390D03*
X015049Y021390D03*
X015049Y021134D03*
X015049Y020878D03*
X015049Y020622D03*
X015049Y020366D03*
X015049Y020111D03*
X015049Y019855D03*
X015049Y019599D03*
X015049Y019343D03*
X015049Y019087D03*
X015049Y018831D03*
X015049Y018575D03*
X015049Y018319D03*
X015049Y018063D03*
D11*
X013100Y026076D03*
X013100Y026578D03*
D12*
X010100Y026407D03*
X010100Y025247D03*
X008700Y025247D03*
X008700Y026407D03*
X007200Y026407D03*
X007200Y025247D03*
X005700Y025247D03*
X005700Y026407D03*
X004200Y026407D03*
X004200Y025247D03*
X002800Y025247D03*
X002800Y026407D03*
X007600Y023407D03*
X007600Y022247D03*
X007600Y020207D03*
X007600Y019047D03*
X007700Y016907D03*
X007700Y015747D03*
X007700Y013607D03*
X007700Y012447D03*
X007700Y010507D03*
X007700Y009347D03*
X015800Y023847D03*
X015800Y025007D03*
X017200Y025007D03*
X017200Y023847D03*
X018600Y023847D03*
X018600Y025007D03*
X030300Y024107D03*
X030300Y022947D03*
X030400Y020507D03*
X030400Y019347D03*
X030500Y017507D03*
X030500Y016347D03*
X030600Y014207D03*
X030600Y013047D03*
X030500Y010907D03*
X030500Y009747D03*
D13*
X006000Y008497D03*
X005630Y009357D03*
X006370Y009357D03*
X006000Y011597D03*
X005630Y012457D03*
X006370Y012457D03*
X006000Y014897D03*
X005630Y015757D03*
X006370Y015757D03*
X005800Y017797D03*
X005430Y018657D03*
X006170Y018657D03*
X005600Y021297D03*
X005230Y022157D03*
X005970Y022157D03*
X031630Y024097D03*
X032370Y024097D03*
X032000Y024957D03*
X032100Y021357D03*
X031730Y020497D03*
X032470Y020497D03*
X032000Y018357D03*
X031630Y017497D03*
X032370Y017497D03*
X032300Y015057D03*
X031930Y014197D03*
X032670Y014197D03*
X032200Y011757D03*
X031830Y010897D03*
X032570Y010897D03*
D14*
X033233Y010001D03*
X033233Y009253D03*
X032367Y009627D03*
X033333Y012553D03*
X033333Y013301D03*
X032467Y012927D03*
X033233Y015953D03*
X033233Y016701D03*
X032367Y016327D03*
X033133Y018953D03*
X033133Y019701D03*
X032267Y019327D03*
X033133Y022353D03*
X033133Y023101D03*
X032267Y022727D03*
X005733Y013527D03*
X004867Y013901D03*
X004867Y013153D03*
X004767Y010901D03*
X004767Y010153D03*
X005633Y010527D03*
X004667Y016253D03*
X004667Y017001D03*
X005533Y016627D03*
X004667Y019353D03*
X005533Y019727D03*
X004667Y020101D03*
X004667Y023053D03*
X005533Y023427D03*
X004667Y023801D03*
D15*
X003300Y023807D03*
X003300Y022647D03*
X003300Y020107D03*
X003300Y018947D03*
X003200Y017007D03*
X003200Y015847D03*
X003300Y014007D03*
X003300Y012847D03*
X003300Y010707D03*
X003300Y009547D03*
X034800Y009547D03*
X034800Y010707D03*
X034800Y013047D03*
X034800Y014207D03*
X034800Y016447D03*
X034800Y017607D03*
X034700Y019347D03*
X034700Y020507D03*
X034600Y022547D03*
X034600Y023707D03*
D16*
X028170Y014397D03*
X029030Y014027D03*
X028170Y013657D03*
X025630Y014027D03*
X024770Y014397D03*
X024770Y013657D03*
X022230Y013927D03*
X021370Y014297D03*
X021370Y013557D03*
X018730Y014027D03*
X017870Y014397D03*
X017870Y013657D03*
X015330Y014027D03*
X014470Y014397D03*
X014470Y013657D03*
X011930Y014027D03*
X011070Y014397D03*
X011070Y013657D03*
D17*
X010074Y012994D03*
X009326Y012994D03*
X009700Y013860D03*
X012926Y012894D03*
X013674Y012894D03*
X013300Y013760D03*
X016426Y012994D03*
X017174Y012994D03*
X016800Y013860D03*
X019726Y012994D03*
X020474Y012994D03*
X020100Y013860D03*
X023226Y012994D03*
X023974Y012994D03*
X023600Y013860D03*
X026726Y012994D03*
X027474Y012994D03*
X027100Y013860D03*
D18*
X026920Y011527D03*
X028080Y011527D03*
X024380Y011527D03*
X023220Y011527D03*
X020980Y011527D03*
X019820Y011527D03*
X017580Y011527D03*
X016420Y011527D03*
X014080Y011527D03*
X012920Y011527D03*
X010480Y011527D03*
X009320Y011527D03*
D19*
X009820Y015627D03*
X010980Y015627D03*
X013120Y015627D03*
X014280Y015627D03*
X016620Y015627D03*
X017780Y015627D03*
X020020Y015627D03*
X021180Y015627D03*
X023520Y015727D03*
X024680Y015727D03*
X026820Y015727D03*
X027980Y015727D03*
D20*
X011700Y027207D03*
X011700Y027847D03*
D21*
X013100Y024578D03*
X013100Y023475D03*
M02*
