G75*
%MOIN*%
%OFA0B0*%
%FSLAX24Y24*%
%IPPOS*%
%LPD*%
%AMOC8*
5,1,8,0,0,1.08239X$1,22.5*
%
%ADD10R,0.0450X0.0180*%
%ADD11R,0.0690X0.0520*%
%ADD12R,0.0720X0.0060*%
%ADD13C,0.0920*%
%ADD14C,0.1444*%
%ADD15R,0.0138X0.0148*%
%ADD16R,0.0750X0.0500*%
%ADD17R,0.0280X0.0580*%
%ADD18R,0.0611X0.0454*%
%ADD19R,0.1100X0.0500*%
%ADD20R,0.0580X0.0280*%
%ADD21R,0.0454X0.0611*%
%ADD22R,0.0500X0.1100*%
%ADD23R,0.0500X0.0750*%
%ADD24R,0.0630X0.0420*%
%ADD25R,0.0769X0.0690*%
%ADD26C,0.0729*%
%ADD27C,0.0540*%
%ADD28C,0.0436*%
%ADD29R,0.0436X0.0436*%
D10*
X012751Y018063D03*
X012751Y018319D03*
X012751Y018575D03*
X012751Y018831D03*
X012751Y019087D03*
X012751Y019343D03*
X012751Y019599D03*
X012751Y019855D03*
X012751Y020111D03*
X012751Y020366D03*
X012751Y020622D03*
X012751Y020878D03*
X012751Y021134D03*
X012751Y021390D03*
X015049Y021390D03*
X015049Y021134D03*
X015049Y020878D03*
X015049Y020622D03*
X015049Y020366D03*
X015049Y020111D03*
X015049Y019855D03*
X015049Y019599D03*
X015049Y019343D03*
X015049Y019087D03*
X015049Y018831D03*
X015049Y018575D03*
X015049Y018319D03*
X015049Y018063D03*
D11*
X010100Y027327D03*
X010100Y027927D03*
X008700Y027927D03*
X008700Y027327D03*
X007200Y027327D03*
X007200Y027927D03*
X005700Y027927D03*
X005700Y027327D03*
X004200Y027327D03*
X004200Y027927D03*
X002800Y027927D03*
X002800Y027327D03*
D12*
X002800Y027627D03*
X004200Y027627D03*
X005700Y027627D03*
X007200Y027627D03*
X008700Y027627D03*
X010100Y027627D03*
D13*
X033931Y027027D03*
X035309Y027027D03*
D14*
X036400Y024327D03*
X036400Y011227D03*
X001200Y022527D03*
X001100Y012527D03*
D15*
X013100Y026125D03*
X013100Y026528D03*
D16*
X010100Y026407D03*
X010100Y025247D03*
X008700Y025247D03*
X008700Y026407D03*
X007200Y026407D03*
X007200Y025247D03*
X005700Y025247D03*
X005700Y026407D03*
X004200Y026407D03*
X004200Y025247D03*
X002800Y025247D03*
X002800Y026407D03*
X007600Y023407D03*
X007600Y022247D03*
X007600Y020207D03*
X007600Y019047D03*
X007700Y016907D03*
X007700Y015747D03*
X007700Y013607D03*
X007700Y012447D03*
X007700Y010507D03*
X007700Y009347D03*
X015800Y023847D03*
X015800Y025007D03*
X017200Y025007D03*
X017200Y023847D03*
X018600Y023847D03*
X018600Y025007D03*
X030300Y024107D03*
X030300Y022947D03*
X030400Y020507D03*
X030400Y019347D03*
X030500Y017507D03*
X030500Y016347D03*
X030600Y014207D03*
X030600Y013047D03*
X030500Y010907D03*
X030500Y009747D03*
D17*
X031830Y010897D03*
X032570Y010897D03*
X032200Y011757D03*
X031930Y014197D03*
X032670Y014197D03*
X032300Y015057D03*
X032370Y017497D03*
X031630Y017497D03*
X032000Y018357D03*
X031730Y020497D03*
X032470Y020497D03*
X032100Y021357D03*
X032370Y024097D03*
X031630Y024097D03*
X032000Y024957D03*
X006170Y018657D03*
X005430Y018657D03*
X005800Y017797D03*
X005630Y015757D03*
X006370Y015757D03*
X006000Y014897D03*
X005630Y012457D03*
X006370Y012457D03*
X006000Y011597D03*
X005630Y009357D03*
X006370Y009357D03*
X006000Y008497D03*
X005600Y021297D03*
X005230Y022157D03*
X005970Y022157D03*
D18*
X004667Y023053D03*
X005533Y023427D03*
X004667Y023801D03*
X004667Y020101D03*
X005533Y019727D03*
X004667Y019353D03*
X004667Y017001D03*
X004667Y016253D03*
X005533Y016627D03*
X004867Y013901D03*
X004867Y013153D03*
X005733Y013527D03*
X004767Y010901D03*
X004767Y010153D03*
X005633Y010527D03*
X032267Y019327D03*
X033133Y019701D03*
X033133Y018953D03*
X033233Y016701D03*
X033233Y015953D03*
X032367Y016327D03*
X033333Y013301D03*
X033333Y012553D03*
X032467Y012927D03*
X033233Y010001D03*
X033233Y009253D03*
X032367Y009627D03*
X033133Y022353D03*
X033133Y023101D03*
X032267Y022727D03*
D19*
X034600Y022547D03*
X034600Y023707D03*
X034700Y020507D03*
X034700Y019347D03*
X034800Y017607D03*
X034800Y016447D03*
X034800Y014207D03*
X034800Y013047D03*
X034800Y010707D03*
X034800Y009547D03*
X003300Y009547D03*
X003300Y010707D03*
X003300Y012847D03*
X003300Y014007D03*
X003200Y015847D03*
X003200Y017007D03*
X003300Y018947D03*
X003300Y020107D03*
X003300Y022647D03*
X003300Y023807D03*
D20*
X011070Y014397D03*
X011930Y014027D03*
X011070Y013657D03*
X014470Y013657D03*
X015330Y014027D03*
X014470Y014397D03*
X017870Y014397D03*
X018730Y014027D03*
X017870Y013657D03*
X021370Y013557D03*
X021370Y014297D03*
X022230Y013927D03*
X024770Y013657D03*
X025630Y014027D03*
X024770Y014397D03*
X028170Y014397D03*
X029030Y014027D03*
X028170Y013657D03*
D21*
X027474Y012994D03*
X026726Y012994D03*
X027100Y013860D03*
X023974Y012994D03*
X023226Y012994D03*
X023600Y013860D03*
X020474Y012994D03*
X019726Y012994D03*
X020100Y013860D03*
X017174Y012994D03*
X016426Y012994D03*
X016800Y013860D03*
X013674Y012894D03*
X012926Y012894D03*
X013300Y013760D03*
X010074Y012994D03*
X009326Y012994D03*
X009700Y013860D03*
D22*
X009320Y011527D03*
X010480Y011527D03*
X012920Y011527D03*
X014080Y011527D03*
X016420Y011527D03*
X017580Y011527D03*
X019820Y011527D03*
X020980Y011527D03*
X023220Y011527D03*
X024380Y011527D03*
X026920Y011527D03*
X028080Y011527D03*
D23*
X027980Y015727D03*
X026820Y015727D03*
X024680Y015727D03*
X023520Y015727D03*
X021180Y015627D03*
X020020Y015627D03*
X017780Y015627D03*
X016620Y015627D03*
X014280Y015627D03*
X013120Y015627D03*
X010980Y015627D03*
X009820Y015627D03*
D24*
X011700Y027207D03*
X011700Y027847D03*
D25*
X013100Y024578D03*
X013100Y023475D03*
D26*
X008177Y006587D03*
X009555Y006587D03*
X010933Y006587D03*
X012311Y006587D03*
X013689Y006587D03*
X015067Y006587D03*
X016445Y006587D03*
X017823Y006587D03*
X020177Y006587D03*
X021555Y006587D03*
X022933Y006587D03*
X024311Y006587D03*
X025689Y006587D03*
X027067Y006587D03*
X028445Y006587D03*
X029823Y006587D03*
D27*
X025750Y027027D03*
X024750Y027027D03*
X025250Y028027D03*
X026250Y028027D03*
D28*
X019600Y024527D03*
X017900Y024427D03*
X016500Y024527D03*
X016500Y021927D03*
X017900Y021927D03*
X018400Y020627D03*
X019500Y021927D03*
X012500Y022127D03*
X011900Y021727D03*
X011400Y021127D03*
X009900Y021027D03*
X009900Y021727D03*
X004900Y017727D03*
X003300Y018127D03*
X002700Y017627D03*
X003200Y015027D03*
X002700Y014527D03*
X003400Y012227D03*
X003300Y011527D03*
X004400Y008827D03*
X005300Y007827D03*
X008700Y010727D03*
X006800Y011127D03*
X005500Y014527D03*
X011200Y011827D03*
X013000Y010527D03*
X011900Y009727D03*
X014800Y011527D03*
X016500Y010527D03*
X015300Y009627D03*
X018300Y011427D03*
X019900Y010527D03*
X019000Y009727D03*
X021700Y011427D03*
X023200Y010527D03*
X022300Y009827D03*
X025100Y011427D03*
X025700Y009827D03*
X026900Y010427D03*
X028700Y011527D03*
X029200Y012227D03*
X030500Y011827D03*
X033300Y011027D03*
X034800Y012127D03*
X034000Y014727D03*
X034900Y015427D03*
X033800Y017927D03*
X034500Y018527D03*
X033600Y021027D03*
X034800Y021627D03*
X034800Y024627D03*
X033100Y025227D03*
X031100Y021427D03*
X030900Y018527D03*
X031700Y015127D03*
X034800Y008727D03*
X009400Y026827D03*
X007900Y026827D03*
X006400Y026827D03*
X004900Y026827D03*
X003500Y026827D03*
X001900Y027327D03*
X003400Y024427D03*
X003400Y021927D03*
X003300Y020927D03*
D29*
X004400Y020727D03*
X016100Y025827D03*
X020400Y023227D03*
M02*
