G75*
%MOIN*%
%OFA0B0*%
%FSLAX24Y24*%
%IPPOS*%
%LPD*%
%AMOC8*
5,1,8,0,0,1.08239X$1,22.5*
%
%ADD10C,0.0920*%
%ADD11C,0.1444*%
%ADD12C,0.0729*%
%ADD13C,0.0540*%
%ADD14C,0.0436*%
%ADD15R,0.0436X0.0436*%
D10*
X033931Y027027D03*
X035309Y027027D03*
D11*
X036400Y024327D03*
X036400Y011227D03*
X001200Y022527D03*
X001100Y012527D03*
D12*
X008177Y006587D03*
X009555Y006587D03*
X010933Y006587D03*
X012311Y006587D03*
X013689Y006587D03*
X015067Y006587D03*
X016445Y006587D03*
X017823Y006587D03*
X020177Y006587D03*
X021555Y006587D03*
X022933Y006587D03*
X024311Y006587D03*
X025689Y006587D03*
X027067Y006587D03*
X028445Y006587D03*
X029823Y006587D03*
D13*
X025750Y027027D03*
X024750Y027027D03*
X025250Y028027D03*
X026250Y028027D03*
D14*
X019600Y024527D03*
X017900Y024427D03*
X016500Y024527D03*
X016500Y021927D03*
X017900Y021927D03*
X018400Y020627D03*
X019500Y021927D03*
X012500Y022127D03*
X011900Y021727D03*
X011400Y021127D03*
X009900Y021027D03*
X009900Y021727D03*
X004900Y017727D03*
X003300Y018127D03*
X002700Y017627D03*
X003200Y015027D03*
X002700Y014527D03*
X003400Y012227D03*
X003300Y011527D03*
X004400Y008827D03*
X005300Y007827D03*
X008700Y010727D03*
X006800Y011127D03*
X005500Y014527D03*
X011200Y011827D03*
X013000Y010527D03*
X011900Y009727D03*
X014800Y011527D03*
X016500Y010527D03*
X015300Y009627D03*
X018300Y011427D03*
X019900Y010527D03*
X019000Y009727D03*
X021700Y011427D03*
X023200Y010527D03*
X022300Y009827D03*
X025100Y011427D03*
X025700Y009827D03*
X026900Y010427D03*
X028700Y011527D03*
X029200Y012227D03*
X030500Y011827D03*
X033300Y011027D03*
X034800Y012127D03*
X034000Y014727D03*
X034900Y015427D03*
X033800Y017927D03*
X034500Y018527D03*
X033600Y021027D03*
X034800Y021627D03*
X034800Y024627D03*
X033100Y025227D03*
X031100Y021427D03*
X030900Y018527D03*
X031700Y015127D03*
X034800Y008727D03*
X009400Y026827D03*
X007900Y026827D03*
X006400Y026827D03*
X004900Y026827D03*
X003500Y026827D03*
X001900Y027327D03*
X003400Y024427D03*
X003400Y021927D03*
X003300Y020927D03*
D15*
X004400Y020727D03*
X016100Y025827D03*
X020400Y023227D03*
M02*
